<mxfile host="65bd71144e">
    <diagram id="LgbUi0Ms2O7RuQ8JJ8WB" name="Page-1">
        <mxGraphModel dx="1594" dy="560" grid="1" gridSize="10" guides="1" tooltips="1" connect="1" arrows="1" fold="1" page="1" pageScale="1" pageWidth="827" pageHeight="1169" math="0" shadow="0">
            <root>
                <mxCell id="0"/>
                <mxCell id="1" parent="0"/>
                <mxCell id="2" value="Function call" style="rounded=1;whiteSpace=wrap;html=1;" vertex="1" parent="1">
                    <mxGeometry x="310" y="30" width="120" height="60" as="geometry"/>
                </mxCell>
                <mxCell id="3" value="Determine&lt;br&gt;Client" style="shape=hexagon;perimeter=hexagonPerimeter2;whiteSpace=wrap;html=1;fixedSize=1;" vertex="1" parent="1">
                    <mxGeometry x="310" y="150" width="120" height="80" as="geometry"/>
                </mxCell>
                <mxCell id="4" value="redirect to form and range of form" style="rounded=0;whiteSpace=wrap;html=1;" vertex="1" parent="1">
                    <mxGeometry x="310" y="280" width="120" height="60" as="geometry"/>
                </mxCell>
            </root>
        </mxGraphModel>
    </diagram>
</mxfile>